<svg version="1.1" xmlns="http://www.w3.org/2000/svg" xmlns:xlink="http://www.w3.org/1999/xlink" width="1051" height="988"><defs><clipPath id="XVEEGavlQUKu"><path fill="none" stroke="none" d=" M 0 0 L 1051 0 L 1051 988 L 0 988 L 0 0 Z"/></clipPath></defs><g transform="scale(1,1)" clip-path="url(#XVEEGavlQUKu)"><g><rect fill="rgb(255,255,255)" stroke="none" x="0" y="0" width="1051" height="988" fill-opacity="1"/><path fill="none" stroke="rgb(192,192,192)" paint-order="fill stroke markers" d=" M 23.5 0.5 L 23.5 988.5 M 23.5 0.5 L 23.5 988.5 M 189.5 0.5 L 189.5 988.5 M 272.5 0.5 L 272.5 988.5 M 354.5 0.5 L 354.5 988.5 M 437.5 0.5 L 437.5 988.5 M 520.5 0.5 L 520.5 988.5 M 603.5 0.5 L 603.5 988.5 M 685.5 0.5 L 685.5 988.5 M 768.5 0.5 L 768.5 988.5 M 851.5 0.5 L 851.5 988.5 M 934.5 0.5 L 934.5 988.5 M 1016.5 0.5 L 1016.5 988.5" stroke-opacity="1" stroke-linecap="round" stroke-linejoin="round" stroke-miterlimit="10"/><path fill="none" stroke="rgb(192,192,192)" paint-order="fill stroke markers" d=" M 7.5 0.5 L 7.5 988.5 M 40.5 0.5 L 40.5 988.5 M 57.5 0.5 L 57.5 988.5 M 73.5 0.5 L 73.5 988.5 M 90.5 0.5 L 90.5 988.5 M 123.5 0.5 L 123.5 988.5 M 139.5 0.5 L 139.5 988.5 M 156.5 0.5 L 156.5 988.5 M 172.5 0.5 L 172.5 988.5 M 205.5 0.5 L 205.5 988.5 M 222.5 0.5 L 222.5 988.5 M 239.5 0.5 L 239.5 988.5 M 255.5 0.5 L 255.5 988.5 M 288.5 0.5 L 288.5 988.5 M 305.5 0.5 L 305.5 988.5 M 321.5 0.5 L 321.5 988.5 M 338.5 0.5 L 338.5 988.5 M 371.5 0.5 L 371.5 988.5 M 388.5 0.5 L 388.5 988.5 M 404.5 0.5 L 404.5 988.5 M 421.5 0.5 L 421.5 988.5 M 454.5 0.5 L 454.5 988.5 M 470.5 0.5 L 470.5 988.5 M 487.5 0.5 L 487.5 988.5 M 503.5 0.5 L 503.5 988.5 M 536.5 0.5 L 536.5 988.5 M 553.5 0.5 L 553.5 988.5 M 570.5 0.5 L 570.5 988.5 M 586.5 0.5 L 586.5 988.5 M 619.5 0.5 L 619.5 988.5 M 636.5 0.5 L 636.5 988.5 M 652.5 0.5 L 652.5 988.5 M 669.5 0.5 L 669.5 988.5 M 702.5 0.5 L 702.5 988.5 M 718.5 0.5 L 718.5 988.5 M 735.5 0.5 L 735.5 988.5 M 752.5 0.5 L 752.5 988.5 M 785.5 0.5 L 785.5 988.5 M 801.5 0.5 L 801.5 988.5 M 818.5 0.5 L 818.5 988.5 M 834.5 0.5 L 834.5 988.5 M 867.5 0.5 L 867.5 988.5 M 884.5 0.5 L 884.5 988.5 M 900.5 0.5 L 900.5 988.5 M 917.5 0.5 L 917.5 988.5 M 950.5 0.5 L 950.5 988.5 M 967.5 0.5 L 967.5 988.5 M 983.5 0.5 L 983.5 988.5 M 1000.5 0.5 L 1000.5 988.5 M 1033.5 0.5 L 1033.5 988.5 M 1049.5 0.5 L 1049.5 988.5" stroke-opacity="0.23529411764705882" stroke-linecap="round" stroke-linejoin="round" stroke-miterlimit="10"/><path fill="none" stroke="rgb(192,192,192)" paint-order="fill stroke markers" d=" M 0.5 3.5 L 1051.5 3.5 M 0.5 3.5 L 1051.5 3.5 M 0.5 85.5 L 1051.5 85.5 M 0.5 168.5 L 1051.5 168.5 M 0.5 251.5 L 1051.5 251.5 M 0.5 334.5 L 1051.5 334.5 M 0.5 416.5 L 1051.5 416.5 M 0.5 499.5 L 1051.5 499.5 M 0.5 582.5 L 1051.5 582.5 M 0.5 665.5 L 1051.5 665.5 M 0.5 747.5 L 1051.5 747.5 M 0.5 830.5 L 1051.5 830.5" stroke-opacity="1" stroke-linecap="round" stroke-linejoin="round" stroke-miterlimit="10"/><path fill="none" stroke="rgb(192,192,192)" paint-order="fill stroke markers" d=" M 0.5 3.5 L 1051.5 3.5 M 0.5 19.5 L 1051.5 19.5 M 0.5 36.5 L 1051.5 36.5 M 0.5 52.5 L 1051.5 52.5 M 0.5 69.5 L 1051.5 69.5 M 0.5 102.5 L 1051.5 102.5 M 0.5 119.5 L 1051.5 119.5 M 0.5 135.5 L 1051.5 135.5 M 0.5 152.5 L 1051.5 152.5 M 0.5 185.5 L 1051.5 185.5 M 0.5 201.5 L 1051.5 201.5 M 0.5 218.5 L 1051.5 218.5 M 0.5 234.5 L 1051.5 234.5 M 0.5 267.5 L 1051.5 267.5 M 0.5 284.5 L 1051.5 284.5 M 0.5 301.5 L 1051.5 301.5 M 0.5 317.5 L 1051.5 317.5 M 0.5 350.5 L 1051.5 350.5 M 0.5 367.5 L 1051.5 367.5 M 0.5 383.5 L 1051.5 383.5 M 0.5 400.5 L 1051.5 400.5 M 0.5 433.5 L 1051.5 433.5 M 0.5 449.5 L 1051.5 449.5 M 0.5 466.5 L 1051.5 466.5 M 0.5 483.5 L 1051.5 483.5 M 0.5 516.5 L 1051.5 516.5 M 0.5 532.5 L 1051.5 532.5 M 0.5 549.5 L 1051.5 549.5 M 0.5 565.5 L 1051.5 565.5 M 0.5 598.5 L 1051.5 598.5 M 0.5 615.5 L 1051.5 615.5 M 0.5 631.5 L 1051.5 631.5 M 0.5 648.5 L 1051.5 648.5 M 0.5 681.5 L 1051.5 681.5 M 0.5 698.5 L 1051.5 698.5 M 0.5 714.5 L 1051.5 714.5 M 0.5 731.5 L 1051.5 731.5 M 0.5 764.5 L 1051.5 764.5 M 0.5 780.5 L 1051.5 780.5 M 0.5 797.5 L 1051.5 797.5 M 0.5 813.5 L 1051.5 813.5 M 0.5 847.5 L 1051.5 847.5 M 0.5 863.5 L 1051.5 863.5 M 0.5 880.5 L 1051.5 880.5 M 0.5 896.5 L 1051.5 896.5 M 0.5 929.5 L 1051.5 929.5 M 0.5 946.5 L 1051.5 946.5 M 0.5 962.5 L 1051.5 962.5 M 0.5 979.5 L 1051.5 979.5" stroke-opacity="0.23529411764705882" stroke-linecap="round" stroke-linejoin="round" stroke-miterlimit="10"/><path fill="none" stroke="rgb(0,0,0)" paint-order="fill stroke markers" d=" M 106.5 2.5 L 106.5 988.5" stroke-opacity="1" stroke-miterlimit="10"/><path fill="rgb(0,0,0)" stroke="none" paint-order="stroke fill markers" fill-rule="evenodd" d=" M 106.71568163852034 1 L 102.71568163852034 17 L 110.71568163852034 17" fill-opacity="1"/><path fill="none" stroke="rgb(0,0,0)" paint-order="fill stroke markers" d=" M 0.5 913.5 L 1049.5 913.5" stroke-opacity="1" stroke-miterlimit="10"/><path fill="rgb(0,0,0)" stroke="none" paint-order="stroke fill markers" fill-rule="evenodd" d=" M 1050 913.2771581266078 L 1034 909.2771581266078 L 1034 917.2771581266078" fill-opacity="1"/><text fill="rgb(0,0,0)" stroke="none" font-family="geogebra-sans-serif, sans-serif" font-size="12px" font-style="normal" font-weight="normal" text-decoration="normal" x="12" y="929" text-anchor="start" dominant-baseline="alphabetic" fill-opacity="1">–0.1</text><text fill="none" stroke="rgb(255,255,255)" font-family="geogebra-sans-serif, sans-serif" font-size="12px" font-style="normal" font-weight="normal" text-decoration="normal" x="12" y="929" text-anchor="start" dominant-baseline="alphabetic" stroke-opacity="1" stroke-linejoin="bevel" stroke-miterlimit="10" stroke-width="3">–0.1</text><text fill="rgb(0,0,0)" stroke="none" font-family="geogebra-sans-serif, sans-serif" font-size="12px" font-style="normal" font-weight="normal" text-decoration="normal" x="12" y="929" text-anchor="start" dominant-baseline="alphabetic" fill-opacity="1">–0.1</text><text fill="rgb(0,0,0)" stroke="none" font-family="geogebra-sans-serif, sans-serif" font-size="12px" font-style="normal" font-weight="normal" text-decoration="normal" x="181" y="929" text-anchor="start" dominant-baseline="alphabetic" fill-opacity="1">0.1</text><text fill="none" stroke="rgb(255,255,255)" font-family="geogebra-sans-serif, sans-serif" font-size="12px" font-style="normal" font-weight="normal" text-decoration="normal" x="181" y="929" text-anchor="start" dominant-baseline="alphabetic" stroke-opacity="1" stroke-linejoin="bevel" stroke-miterlimit="10" stroke-width="3">0.1</text><text fill="rgb(0,0,0)" stroke="none" font-family="geogebra-sans-serif, sans-serif" font-size="12px" font-style="normal" font-weight="normal" text-decoration="normal" x="181" y="929" text-anchor="start" dominant-baseline="alphabetic" fill-opacity="1">0.1</text><text fill="rgb(0,0,0)" stroke="none" font-family="geogebra-sans-serif, sans-serif" font-size="12px" font-style="normal" font-weight="normal" text-decoration="normal" x="264" y="929" text-anchor="start" dominant-baseline="alphabetic" fill-opacity="1">0.2</text><text fill="none" stroke="rgb(255,255,255)" font-family="geogebra-sans-serif, sans-serif" font-size="12px" font-style="normal" font-weight="normal" text-decoration="normal" x="264" y="929" text-anchor="start" dominant-baseline="alphabetic" stroke-opacity="1" stroke-linejoin="bevel" stroke-miterlimit="10" stroke-width="3">0.2</text><text fill="rgb(0,0,0)" stroke="none" font-family="geogebra-sans-serif, sans-serif" font-size="12px" font-style="normal" font-weight="normal" text-decoration="normal" x="264" y="929" text-anchor="start" dominant-baseline="alphabetic" fill-opacity="1">0.2</text><text fill="rgb(0,0,0)" stroke="none" font-family="geogebra-sans-serif, sans-serif" font-size="12px" font-style="normal" font-weight="normal" text-decoration="normal" x="346" y="929" text-anchor="start" dominant-baseline="alphabetic" fill-opacity="1">0.3</text><text fill="none" stroke="rgb(255,255,255)" font-family="geogebra-sans-serif, sans-serif" font-size="12px" font-style="normal" font-weight="normal" text-decoration="normal" x="346" y="929" text-anchor="start" dominant-baseline="alphabetic" stroke-opacity="1" stroke-linejoin="bevel" stroke-miterlimit="10" stroke-width="3">0.3</text><text fill="rgb(0,0,0)" stroke="none" font-family="geogebra-sans-serif, sans-serif" font-size="12px" font-style="normal" font-weight="normal" text-decoration="normal" x="346" y="929" text-anchor="start" dominant-baseline="alphabetic" fill-opacity="1">0.3</text><text fill="rgb(0,0,0)" stroke="none" font-family="geogebra-sans-serif, sans-serif" font-size="12px" font-style="normal" font-weight="normal" text-decoration="normal" x="429" y="929" text-anchor="start" dominant-baseline="alphabetic" fill-opacity="1">0.4</text><text fill="none" stroke="rgb(255,255,255)" font-family="geogebra-sans-serif, sans-serif" font-size="12px" font-style="normal" font-weight="normal" text-decoration="normal" x="429" y="929" text-anchor="start" dominant-baseline="alphabetic" stroke-opacity="1" stroke-linejoin="bevel" stroke-miterlimit="10" stroke-width="3">0.4</text><text fill="rgb(0,0,0)" stroke="none" font-family="geogebra-sans-serif, sans-serif" font-size="12px" font-style="normal" font-weight="normal" text-decoration="normal" x="429" y="929" text-anchor="start" dominant-baseline="alphabetic" fill-opacity="1">0.4</text><text fill="rgb(0,0,0)" stroke="none" font-family="geogebra-sans-serif, sans-serif" font-size="12px" font-style="normal" font-weight="normal" text-decoration="normal" x="512" y="929" text-anchor="start" dominant-baseline="alphabetic" fill-opacity="1">0.5</text><text fill="none" stroke="rgb(255,255,255)" font-family="geogebra-sans-serif, sans-serif" font-size="12px" font-style="normal" font-weight="normal" text-decoration="normal" x="512" y="929" text-anchor="start" dominant-baseline="alphabetic" stroke-opacity="1" stroke-linejoin="bevel" stroke-miterlimit="10" stroke-width="3">0.5</text><text fill="rgb(0,0,0)" stroke="none" font-family="geogebra-sans-serif, sans-serif" font-size="12px" font-style="normal" font-weight="normal" text-decoration="normal" x="512" y="929" text-anchor="start" dominant-baseline="alphabetic" fill-opacity="1">0.5</text><text fill="rgb(0,0,0)" stroke="none" font-family="geogebra-sans-serif, sans-serif" font-size="12px" font-style="normal" font-weight="normal" text-decoration="normal" x="595" y="929" text-anchor="start" dominant-baseline="alphabetic" fill-opacity="1">0.6</text><text fill="none" stroke="rgb(255,255,255)" font-family="geogebra-sans-serif, sans-serif" font-size="12px" font-style="normal" font-weight="normal" text-decoration="normal" x="595" y="929" text-anchor="start" dominant-baseline="alphabetic" stroke-opacity="1" stroke-linejoin="bevel" stroke-miterlimit="10" stroke-width="3">0.6</text><text fill="rgb(0,0,0)" stroke="none" font-family="geogebra-sans-serif, sans-serif" font-size="12px" font-style="normal" font-weight="normal" text-decoration="normal" x="595" y="929" text-anchor="start" dominant-baseline="alphabetic" fill-opacity="1">0.6</text><text fill="rgb(0,0,0)" stroke="none" font-family="geogebra-sans-serif, sans-serif" font-size="12px" font-style="normal" font-weight="normal" text-decoration="normal" x="677" y="929" text-anchor="start" dominant-baseline="alphabetic" fill-opacity="1">0.7</text><text fill="none" stroke="rgb(255,255,255)" font-family="geogebra-sans-serif, sans-serif" font-size="12px" font-style="normal" font-weight="normal" text-decoration="normal" x="677" y="929" text-anchor="start" dominant-baseline="alphabetic" stroke-opacity="1" stroke-linejoin="bevel" stroke-miterlimit="10" stroke-width="3">0.7</text><text fill="rgb(0,0,0)" stroke="none" font-family="geogebra-sans-serif, sans-serif" font-size="12px" font-style="normal" font-weight="normal" text-decoration="normal" x="677" y="929" text-anchor="start" dominant-baseline="alphabetic" fill-opacity="1">0.7</text><text fill="rgb(0,0,0)" stroke="none" font-family="geogebra-sans-serif, sans-serif" font-size="12px" font-style="normal" font-weight="normal" text-decoration="normal" x="760" y="929" text-anchor="start" dominant-baseline="alphabetic" fill-opacity="1">0.8</text><text fill="none" stroke="rgb(255,255,255)" font-family="geogebra-sans-serif, sans-serif" font-size="12px" font-style="normal" font-weight="normal" text-decoration="normal" x="760" y="929" text-anchor="start" dominant-baseline="alphabetic" stroke-opacity="1" stroke-linejoin="bevel" stroke-miterlimit="10" stroke-width="3">0.8</text><text fill="rgb(0,0,0)" stroke="none" font-family="geogebra-sans-serif, sans-serif" font-size="12px" font-style="normal" font-weight="normal" text-decoration="normal" x="760" y="929" text-anchor="start" dominant-baseline="alphabetic" fill-opacity="1">0.8</text><text fill="rgb(0,0,0)" stroke="none" font-family="geogebra-sans-serif, sans-serif" font-size="12px" font-style="normal" font-weight="normal" text-decoration="normal" x="843" y="929" text-anchor="start" dominant-baseline="alphabetic" fill-opacity="1">0.9</text><text fill="none" stroke="rgb(255,255,255)" font-family="geogebra-sans-serif, sans-serif" font-size="12px" font-style="normal" font-weight="normal" text-decoration="normal" x="843" y="929" text-anchor="start" dominant-baseline="alphabetic" stroke-opacity="1" stroke-linejoin="bevel" stroke-miterlimit="10" stroke-width="3">0.9</text><text fill="rgb(0,0,0)" stroke="none" font-family="geogebra-sans-serif, sans-serif" font-size="12px" font-style="normal" font-weight="normal" text-decoration="normal" x="843" y="929" text-anchor="start" dominant-baseline="alphabetic" fill-opacity="1">0.9</text><text fill="rgb(0,0,0)" stroke="none" font-family="geogebra-sans-serif, sans-serif" font-size="12px" font-style="normal" font-weight="normal" text-decoration="normal" x="932" y="929" text-anchor="start" dominant-baseline="alphabetic" fill-opacity="1">1</text><text fill="none" stroke="rgb(255,255,255)" font-family="geogebra-sans-serif, sans-serif" font-size="12px" font-style="normal" font-weight="normal" text-decoration="normal" x="932" y="929" text-anchor="start" dominant-baseline="alphabetic" stroke-opacity="1" stroke-linejoin="bevel" stroke-miterlimit="10" stroke-width="3">1</text><text fill="rgb(0,0,0)" stroke="none" font-family="geogebra-sans-serif, sans-serif" font-size="12px" font-style="normal" font-weight="normal" text-decoration="normal" x="932" y="929" text-anchor="start" dominant-baseline="alphabetic" fill-opacity="1">1</text><text fill="rgb(0,0,0)" stroke="none" font-family="geogebra-sans-serif, sans-serif" font-size="12px" font-style="normal" font-weight="normal" text-decoration="normal" x="1008" y="929" text-anchor="start" dominant-baseline="alphabetic" fill-opacity="1">1.1</text><text fill="none" stroke="rgb(255,255,255)" font-family="geogebra-sans-serif, sans-serif" font-size="12px" font-style="normal" font-weight="normal" text-decoration="normal" x="1008" y="929" text-anchor="start" dominant-baseline="alphabetic" stroke-opacity="1" stroke-linejoin="bevel" stroke-miterlimit="10" stroke-width="3">1.1</text><text fill="rgb(0,0,0)" stroke="none" font-family="geogebra-sans-serif, sans-serif" font-size="12px" font-style="normal" font-weight="normal" text-decoration="normal" x="1008" y="929" text-anchor="start" dominant-baseline="alphabetic" fill-opacity="1">1.1</text><text fill="rgb(0,0,0)" stroke="none" font-family="geogebra-sans-serif, sans-serif" font-size="12px" font-style="normal" font-weight="normal" text-decoration="normal" x="82" y="835" text-anchor="start" dominant-baseline="alphabetic" fill-opacity="1">0.1</text><text fill="none" stroke="rgb(255,255,255)" font-family="geogebra-sans-serif, sans-serif" font-size="12px" font-style="normal" font-weight="normal" text-decoration="normal" x="82" y="835" text-anchor="start" dominant-baseline="alphabetic" stroke-opacity="1" stroke-linejoin="bevel" stroke-miterlimit="10" stroke-width="3">0.1</text><text fill="rgb(0,0,0)" stroke="none" font-family="geogebra-sans-serif, sans-serif" font-size="12px" font-style="normal" font-weight="normal" text-decoration="normal" x="82" y="835" text-anchor="start" dominant-baseline="alphabetic" fill-opacity="1">0.1</text><text fill="rgb(0,0,0)" stroke="none" font-family="geogebra-sans-serif, sans-serif" font-size="12px" font-style="normal" font-weight="normal" text-decoration="normal" x="82" y="752" text-anchor="start" dominant-baseline="alphabetic" fill-opacity="1">0.2</text><text fill="none" stroke="rgb(255,255,255)" font-family="geogebra-sans-serif, sans-serif" font-size="12px" font-style="normal" font-weight="normal" text-decoration="normal" x="82" y="752" text-anchor="start" dominant-baseline="alphabetic" stroke-opacity="1" stroke-linejoin="bevel" stroke-miterlimit="10" stroke-width="3">0.2</text><text fill="rgb(0,0,0)" stroke="none" font-family="geogebra-sans-serif, sans-serif" font-size="12px" font-style="normal" font-weight="normal" text-decoration="normal" x="82" y="752" text-anchor="start" dominant-baseline="alphabetic" fill-opacity="1">0.2</text><text fill="rgb(0,0,0)" stroke="none" font-family="geogebra-sans-serif, sans-serif" font-size="12px" font-style="normal" font-weight="normal" text-decoration="normal" x="82" y="670" text-anchor="start" dominant-baseline="alphabetic" fill-opacity="1">0.3</text><text fill="none" stroke="rgb(255,255,255)" font-family="geogebra-sans-serif, sans-serif" font-size="12px" font-style="normal" font-weight="normal" text-decoration="normal" x="82" y="670" text-anchor="start" dominant-baseline="alphabetic" stroke-opacity="1" stroke-linejoin="bevel" stroke-miterlimit="10" stroke-width="3">0.3</text><text fill="rgb(0,0,0)" stroke="none" font-family="geogebra-sans-serif, sans-serif" font-size="12px" font-style="normal" font-weight="normal" text-decoration="normal" x="82" y="670" text-anchor="start" dominant-baseline="alphabetic" fill-opacity="1">0.3</text><text fill="rgb(0,0,0)" stroke="none" font-family="geogebra-sans-serif, sans-serif" font-size="12px" font-style="normal" font-weight="normal" text-decoration="normal" x="82" y="587" text-anchor="start" dominant-baseline="alphabetic" fill-opacity="1">0.4</text><text fill="none" stroke="rgb(255,255,255)" font-family="geogebra-sans-serif, sans-serif" font-size="12px" font-style="normal" font-weight="normal" text-decoration="normal" x="82" y="587" text-anchor="start" dominant-baseline="alphabetic" stroke-opacity="1" stroke-linejoin="bevel" stroke-miterlimit="10" stroke-width="3">0.4</text><text fill="rgb(0,0,0)" stroke="none" font-family="geogebra-sans-serif, sans-serif" font-size="12px" font-style="normal" font-weight="normal" text-decoration="normal" x="82" y="587" text-anchor="start" dominant-baseline="alphabetic" fill-opacity="1">0.4</text><text fill="rgb(0,0,0)" stroke="none" font-family="geogebra-sans-serif, sans-serif" font-size="12px" font-style="normal" font-weight="normal" text-decoration="normal" x="82" y="504" text-anchor="start" dominant-baseline="alphabetic" fill-opacity="1">0.5</text><text fill="none" stroke="rgb(255,255,255)" font-family="geogebra-sans-serif, sans-serif" font-size="12px" font-style="normal" font-weight="normal" text-decoration="normal" x="82" y="504" text-anchor="start" dominant-baseline="alphabetic" stroke-opacity="1" stroke-linejoin="bevel" stroke-miterlimit="10" stroke-width="3">0.5</text><text fill="rgb(0,0,0)" stroke="none" font-family="geogebra-sans-serif, sans-serif" font-size="12px" font-style="normal" font-weight="normal" text-decoration="normal" x="82" y="504" text-anchor="start" dominant-baseline="alphabetic" fill-opacity="1">0.5</text><text fill="rgb(0,0,0)" stroke="none" font-family="geogebra-sans-serif, sans-serif" font-size="12px" font-style="normal" font-weight="normal" text-decoration="normal" x="82" y="421" text-anchor="start" dominant-baseline="alphabetic" fill-opacity="1">0.6</text><text fill="none" stroke="rgb(255,255,255)" font-family="geogebra-sans-serif, sans-serif" font-size="12px" font-style="normal" font-weight="normal" text-decoration="normal" x="82" y="421" text-anchor="start" dominant-baseline="alphabetic" stroke-opacity="1" stroke-linejoin="bevel" stroke-miterlimit="10" stroke-width="3">0.6</text><text fill="rgb(0,0,0)" stroke="none" font-family="geogebra-sans-serif, sans-serif" font-size="12px" font-style="normal" font-weight="normal" text-decoration="normal" x="82" y="421" text-anchor="start" dominant-baseline="alphabetic" fill-opacity="1">0.6</text><text fill="rgb(0,0,0)" stroke="none" font-family="geogebra-sans-serif, sans-serif" font-size="12px" font-style="normal" font-weight="normal" text-decoration="normal" x="82" y="339" text-anchor="start" dominant-baseline="alphabetic" fill-opacity="1">0.7</text><text fill="none" stroke="rgb(255,255,255)" font-family="geogebra-sans-serif, sans-serif" font-size="12px" font-style="normal" font-weight="normal" text-decoration="normal" x="82" y="339" text-anchor="start" dominant-baseline="alphabetic" stroke-opacity="1" stroke-linejoin="bevel" stroke-miterlimit="10" stroke-width="3">0.7</text><text fill="rgb(0,0,0)" stroke="none" font-family="geogebra-sans-serif, sans-serif" font-size="12px" font-style="normal" font-weight="normal" text-decoration="normal" x="82" y="339" text-anchor="start" dominant-baseline="alphabetic" fill-opacity="1">0.7</text><text fill="rgb(0,0,0)" stroke="none" font-family="geogebra-sans-serif, sans-serif" font-size="12px" font-style="normal" font-weight="normal" text-decoration="normal" x="82" y="256" text-anchor="start" dominant-baseline="alphabetic" fill-opacity="1">0.8</text><text fill="none" stroke="rgb(255,255,255)" font-family="geogebra-sans-serif, sans-serif" font-size="12px" font-style="normal" font-weight="normal" text-decoration="normal" x="82" y="256" text-anchor="start" dominant-baseline="alphabetic" stroke-opacity="1" stroke-linejoin="bevel" stroke-miterlimit="10" stroke-width="3">0.8</text><text fill="rgb(0,0,0)" stroke="none" font-family="geogebra-sans-serif, sans-serif" font-size="12px" font-style="normal" font-weight="normal" text-decoration="normal" x="82" y="256" text-anchor="start" dominant-baseline="alphabetic" fill-opacity="1">0.8</text><text fill="rgb(0,0,0)" stroke="none" font-family="geogebra-sans-serif, sans-serif" font-size="12px" font-style="normal" font-weight="normal" text-decoration="normal" x="82" y="173" text-anchor="start" dominant-baseline="alphabetic" fill-opacity="1">0.9</text><text fill="none" stroke="rgb(255,255,255)" font-family="geogebra-sans-serif, sans-serif" font-size="12px" font-style="normal" font-weight="normal" text-decoration="normal" x="82" y="173" text-anchor="start" dominant-baseline="alphabetic" stroke-opacity="1" stroke-linejoin="bevel" stroke-miterlimit="10" stroke-width="3">0.9</text><text fill="rgb(0,0,0)" stroke="none" font-family="geogebra-sans-serif, sans-serif" font-size="12px" font-style="normal" font-weight="normal" text-decoration="normal" x="82" y="173" text-anchor="start" dominant-baseline="alphabetic" fill-opacity="1">0.9</text><text fill="rgb(0,0,0)" stroke="none" font-family="geogebra-sans-serif, sans-serif" font-size="12px" font-style="normal" font-weight="normal" text-decoration="normal" x="92" y="90" text-anchor="start" dominant-baseline="alphabetic" fill-opacity="1">1</text><text fill="none" stroke="rgb(255,255,255)" font-family="geogebra-sans-serif, sans-serif" font-size="12px" font-style="normal" font-weight="normal" text-decoration="normal" x="92" y="90" text-anchor="start" dominant-baseline="alphabetic" stroke-opacity="1" stroke-linejoin="bevel" stroke-miterlimit="10" stroke-width="3">1</text><text fill="rgb(0,0,0)" stroke="none" font-family="geogebra-sans-serif, sans-serif" font-size="12px" font-style="normal" font-weight="normal" text-decoration="normal" x="92" y="90" text-anchor="start" dominant-baseline="alphabetic" fill-opacity="1">1</text><text fill="rgb(0,0,0)" stroke="none" font-family="geogebra-sans-serif, sans-serif" font-size="12px" font-style="normal" font-weight="normal" text-decoration="normal" x="92" y="929" text-anchor="start" dominant-baseline="alphabetic" fill-opacity="1">0</text><text fill="none" stroke="rgb(255,255,255)" font-family="geogebra-sans-serif, sans-serif" font-size="12px" font-style="normal" font-weight="normal" text-decoration="normal" x="92" y="929" text-anchor="start" dominant-baseline="alphabetic" stroke-opacity="1" stroke-linejoin="bevel" stroke-miterlimit="10" stroke-width="3">0</text><text fill="rgb(0,0,0)" stroke="none" font-family="geogebra-sans-serif, sans-serif" font-size="12px" font-style="normal" font-weight="normal" text-decoration="normal" x="92" y="929" text-anchor="start" dominant-baseline="alphabetic" fill-opacity="1">0</text><path fill="rgb(0,100,0)" stroke="none" paint-order="stroke fill markers" d=" M 176.71568163852035 913.2771581266078 C 176.71568163852035 904.3717980359635 175.01641770772972 895.5482300499235 171.7090500004885 887.2798107818204 L 106.71568163852034 913.2771581266078 Z" fill-opacity="0.09803921568627451"/><path fill="none" stroke="rgb(0,100,0)" paint-order="fill stroke markers" d=" M 176.71568163852035 913.2771581266078 C 176.71568163852035 904.3717980359635 175.01641770772972 895.5482300499235 171.7090500004885 887.2798107818204 L 106.71568163852034 913.2771581266078 Z" stroke-opacity="0.6980392156862745" stroke-linecap="round" stroke-linejoin="round" stroke-miterlimit="10" stroke-width="2.5"/><text fill="rgb(0,100,0)" stroke="none" font-family="geogebra-sans-serif, sans-serif" font-size="16px" font-style="normal" font-weight="normal" text-decoration="normal" x="144" y="910" text-anchor="start" dominant-baseline="alphabetic" fill-opacity="1">α</text><text fill="none" stroke="rgb(255,255,255)" font-family="geogebra-sans-serif, sans-serif" font-size="16px" font-style="normal" font-weight="normal" text-decoration="normal" x="144" y="910" text-anchor="start" dominant-baseline="alphabetic" stroke-opacity="1" stroke-linejoin="bevel" stroke-miterlimit="10" stroke-width="3">α</text><text fill="rgb(0,100,0)" stroke="none" font-family="geogebra-sans-serif, sans-serif" font-size="16px" font-style="normal" font-weight="normal" text-decoration="normal" x="144" y="910" text-anchor="start" dominant-baseline="alphabetic" fill-opacity="1">α</text><path fill="rgb(255,127,0)" stroke="none" paint-order="stroke fill markers" d=" M 171.7090500004885 887.2798107818204 C 164.59417563661185 869.4926248721288 150.50021489299925 855.3986641285161 132.7130289833076 848.2837897646394 L 106.71568163852034 913.2771581266078 Z" fill-opacity="0.33725490196078434"/><path fill="none" stroke="rgb(255,127,0)" paint-order="fill stroke markers" d=" M 171.7090500004885 887.2798107818204 C 164.59417563661185 869.4926248721288 150.50021489299925 855.3986641285161 132.7130289833076 848.2837897646394 L 106.71568163852034 913.2771581266078 Z" stroke-opacity="0.6980392156862745" stroke-linecap="round" stroke-linejoin="round" stroke-miterlimit="10" stroke-width="3"/><text fill="rgb(255,127,0)" stroke="none" font-family="geogebra-sans-serif, sans-serif" font-size="16px" font-style="normal" font-weight="normal" text-decoration="normal" x="132" y="889" text-anchor="start" dominant-baseline="alphabetic" fill-opacity="1">θ</text><text fill="none" stroke="rgb(255,255,255)" font-family="geogebra-sans-serif, sans-serif" font-size="16px" font-style="normal" font-weight="normal" text-decoration="normal" x="132" y="889" text-anchor="start" dominant-baseline="alphabetic" stroke-opacity="1" stroke-linejoin="bevel" stroke-miterlimit="10" stroke-width="3">θ</text><text fill="rgb(255,127,0)" stroke="none" font-family="geogebra-sans-serif, sans-serif" font-size="16px" font-style="normal" font-weight="normal" text-decoration="normal" x="132" y="889" text-anchor="start" dominant-baseline="alphabetic" fill-opacity="1">θ</text><path fill="none" stroke="rgb(0,0,0)" paint-order="fill stroke markers" d=" M 106.71568163852034 913.2771581266078 L 437.6456306692883 85.9522855496848" stroke-opacity="0.6980392156862745" stroke-linecap="round" stroke-linejoin="round" stroke-miterlimit="10" stroke-width="2.5"/><path fill="none" stroke="rgb(0,0,0)" paint-order="fill stroke markers" d=" M 106.71568163852034 913.2771581266078 L 934.0405542154402 582.3472090958386" stroke-opacity="0.6980392156862745" stroke-linecap="round" stroke-linejoin="round" stroke-miterlimit="10" stroke-width="2.5"/><path fill="none" stroke="rgb(0,0,0)" paint-order="fill stroke markers" d=" M 437.6456306692883 85.9522855496848 L 437.6456306692883 913.2771581266078" stroke-opacity="0.6980392156862745" stroke-linejoin="round" stroke-miterlimit="10" stroke-width="2.5" stroke-dasharray="2.5,3"/><path fill="none" stroke="rgb(0,0,0)" paint-order="fill stroke markers" d=" M 934.0405542154402 582.3472090958386 L 106.71568163852034 582.3472090958386" stroke-opacity="0.6980392156862745" stroke-linejoin="round" stroke-miterlimit="10" stroke-width="2.5" stroke-dasharray="2.5,3"/><path fill="none" stroke="rgb(0,0,0)" paint-order="fill stroke markers" d=" M 934.0405542154402 582.3472090958386 L 934.0405542154402 913.2771581266078" stroke-opacity="0.6980392156862745" stroke-linejoin="round" stroke-miterlimit="10" stroke-width="2.5" stroke-dasharray="2.5,3"/><path fill="none" stroke="rgb(0,0,0)" paint-order="fill stroke markers" d=" M 437.6456306692883 85.9522855496848 L 106.71568163852034 85.9522855496848" stroke-opacity="0.6980392156862745" stroke-linejoin="round" stroke-miterlimit="10" stroke-width="2.5" stroke-dasharray="2.5,3"/><path fill="rgb(68,68,68)" stroke="none" paint-order="stroke fill markers" d=" M 110.71568163852034 913.2771581266078 C 110.71568163852034 915.486297125931 108.92482063784351 917.2771581266078 106.71568163852034 917.2771581266078 C 104.50654263919716 917.2771581266078 102.71568163852034 915.486297125931 102.71568163852034 913.2771581266078 C 102.71568163852034 911.0680191272846 104.50654263919716 909.2771581266078 106.71568163852034 909.2771581266078 C 108.92482063784351 909.2771581266078 110.71568163852034 911.0680191272846 110.71568163852034 913.2771581266078 Z" fill-opacity="1"/><path fill="none" stroke="rgb(0,0,0)" paint-order="fill stroke markers" d=" M 110.71568163852034 913.2771581266078 C 110.71568163852034 915.486297125931 108.92482063784351 917.2771581266078 106.71568163852034 917.2771581266078 C 104.50654263919716 917.2771581266078 102.71568163852034 915.486297125931 102.71568163852034 913.2771581266078 C 102.71568163852034 911.0680191272846 104.50654263919716 909.2771581266078 106.71568163852034 909.2771581266078 C 108.92482063784351 909.2771581266078 110.71568163852034 911.0680191272846 110.71568163852034 913.2771581266078 Z" stroke-opacity="1" stroke-linecap="round" stroke-linejoin="round" stroke-miterlimit="10"/><text fill="rgb(68,68,68)" stroke="none" font-family="geogebra-sans-serif, sans-serif" font-size="16px" font-style="normal" font-weight="normal" text-decoration="normal" x="111" y="905" text-anchor="start" dominant-baseline="alphabetic" fill-opacity="1">A</text><text fill="none" stroke="rgb(255,255,255)" font-family="geogebra-sans-serif, sans-serif" font-size="16px" font-style="normal" font-weight="normal" text-decoration="normal" x="111" y="905" text-anchor="start" dominant-baseline="alphabetic" stroke-opacity="1" stroke-linejoin="bevel" stroke-miterlimit="10" stroke-width="3">A</text><text fill="rgb(68,68,68)" stroke="none" font-family="geogebra-sans-serif, sans-serif" font-size="16px" font-style="normal" font-weight="normal" text-decoration="normal" x="111" y="905" text-anchor="start" dominant-baseline="alphabetic" fill-opacity="1">A</text><path fill="rgb(77,77,255)" stroke="none" paint-order="stroke fill markers" d=" M 442.6456306692883 85.9522855496848 C 442.6456306692883 88.71370929883876 440.40705441844227 90.9522855496848 437.6456306692883 90.9522855496848 C 434.8842069201344 90.9522855496848 432.6456306692883 88.71370929883876 432.6456306692883 85.9522855496848 C 432.6456306692883 83.19086180053084 434.8842069201344 80.9522855496848 437.6456306692883 80.9522855496848 C 440.40705441844227 80.9522855496848 442.6456306692883 83.19086180053084 442.6456306692883 85.9522855496848 Z" fill-opacity="1"/><path fill="none" stroke="rgb(0,0,0)" paint-order="fill stroke markers" d=" M 442.6456306692883 85.9522855496848 C 442.6456306692883 88.71370929883876 440.40705441844227 90.9522855496848 437.6456306692883 90.9522855496848 C 434.8842069201344 90.9522855496848 432.6456306692883 88.71370929883876 432.6456306692883 85.9522855496848 C 432.6456306692883 83.19086180053084 434.8842069201344 80.9522855496848 437.6456306692883 80.9522855496848 C 440.40705441844227 80.9522855496848 442.6456306692883 83.19086180053084 442.6456306692883 85.9522855496848 Z" stroke-opacity="1" stroke-linecap="round" stroke-linejoin="round" stroke-miterlimit="10"/><text fill="rgb(77,77,255)" stroke="none" font-family="geogebra-sans-serif, sans-serif" font-size="16px" font-style="normal" font-weight="normal" text-decoration="normal" x="442" y="76" text-anchor="start" dominant-baseline="alphabetic" fill-opacity="1">B</text><text fill="none" stroke="rgb(255,255,255)" font-family="geogebra-sans-serif, sans-serif" font-size="16px" font-style="normal" font-weight="normal" text-decoration="normal" x="442" y="76" text-anchor="start" dominant-baseline="alphabetic" stroke-opacity="1" stroke-linejoin="bevel" stroke-miterlimit="10" stroke-width="3">B</text><text fill="rgb(77,77,255)" stroke="none" font-family="geogebra-sans-serif, sans-serif" font-size="16px" font-style="normal" font-weight="normal" text-decoration="normal" x="442" y="76" text-anchor="start" dominant-baseline="alphabetic" fill-opacity="1">B</text><path fill="rgb(77,77,255)" stroke="none" paint-order="stroke fill markers" d=" M 939.0405542154402 582.3472090958386 C 939.0405542154402 585.1086328449926 936.8019779645942 587.3472090958386 934.0405542154402 587.3472090958386 C 931.2791304662862 587.3472090958386 929.0405542154402 585.1086328449926 929.0405542154402 582.3472090958386 C 929.0405542154402 579.5857853466846 931.2791304662862 577.3472090958386 934.0405542154402 577.3472090958386 C 936.8019779645942 577.3472090958386 939.0405542154402 579.5857853466846 939.0405542154402 582.3472090958386 Z" fill-opacity="1"/><path fill="none" stroke="rgb(0,0,0)" paint-order="fill stroke markers" d=" M 939.0405542154402 582.3472090958386 C 939.0405542154402 585.1086328449926 936.8019779645942 587.3472090958386 934.0405542154402 587.3472090958386 C 931.2791304662862 587.3472090958386 929.0405542154402 585.1086328449926 929.0405542154402 582.3472090958386 C 929.0405542154402 579.5857853466846 931.2791304662862 577.3472090958386 934.0405542154402 577.3472090958386 C 936.8019779645942 577.3472090958386 939.0405542154402 579.5857853466846 939.0405542154402 582.3472090958386 Z" stroke-opacity="1" stroke-linecap="round" stroke-linejoin="round" stroke-miterlimit="10"/><text fill="rgb(77,77,255)" stroke="none" font-family="geogebra-sans-serif, sans-serif" font-size="16px" font-style="normal" font-weight="normal" text-decoration="normal" x="938" y="572" text-anchor="start" dominant-baseline="alphabetic" fill-opacity="1">C</text><text fill="none" stroke="rgb(255,255,255)" font-family="geogebra-sans-serif, sans-serif" font-size="16px" font-style="normal" font-weight="normal" text-decoration="normal" x="938" y="572" text-anchor="start" dominant-baseline="alphabetic" stroke-opacity="1" stroke-linejoin="bevel" stroke-miterlimit="10" stroke-width="3">C</text><text fill="rgb(77,77,255)" stroke="none" font-family="geogebra-sans-serif, sans-serif" font-size="16px" font-style="normal" font-weight="normal" text-decoration="normal" x="938" y="572" text-anchor="start" dominant-baseline="alphabetic" fill-opacity="1">C</text><path fill="rgb(77,77,255)" stroke="none" paint-order="stroke fill markers" d=" M 442.6456306692883 913.2771581266078 C 442.6456306692883 916.0385818757618 440.40705441844227 918.2771581266078 437.6456306692883 918.2771581266078 C 434.8842069201344 918.2771581266078 432.6456306692883 916.0385818757618 432.6456306692883 913.2771581266078 C 432.6456306692883 910.5157343774538 434.8842069201344 908.2771581266078 437.6456306692883 908.2771581266078 C 440.40705441844227 908.2771581266078 442.6456306692883 910.5157343774538 442.6456306692883 913.2771581266078 Z" fill-opacity="1"/><path fill="none" stroke="rgb(0,0,0)" paint-order="fill stroke markers" d=" M 442.6456306692883 913.2771581266078 C 442.6456306692883 916.0385818757618 440.40705441844227 918.2771581266078 437.6456306692883 918.2771581266078 C 434.8842069201344 918.2771581266078 432.6456306692883 916.0385818757618 432.6456306692883 913.2771581266078 C 432.6456306692883 910.5157343774538 434.8842069201344 908.2771581266078 437.6456306692883 908.2771581266078 C 440.40705441844227 908.2771581266078 442.6456306692883 910.5157343774538 442.6456306692883 913.2771581266078 Z" stroke-opacity="1" stroke-linecap="round" stroke-linejoin="round" stroke-miterlimit="10"/><text fill="rgb(77,77,255)" stroke="none" font-family="geogebra-sans-serif, sans-serif" font-size="16px" font-style="normal" font-weight="normal" text-decoration="normal" x="442" y="903" text-anchor="start" dominant-baseline="alphabetic" fill-opacity="1">D</text><text fill="none" stroke="rgb(255,255,255)" font-family="geogebra-sans-serif, sans-serif" font-size="16px" font-style="normal" font-weight="normal" text-decoration="normal" x="442" y="903" text-anchor="start" dominant-baseline="alphabetic" stroke-opacity="1" stroke-linejoin="bevel" stroke-miterlimit="10" stroke-width="3">D</text><text fill="rgb(77,77,255)" stroke="none" font-family="geogebra-sans-serif, sans-serif" font-size="16px" font-style="normal" font-weight="normal" text-decoration="normal" x="442" y="903" text-anchor="start" dominant-baseline="alphabetic" fill-opacity="1">D</text><path fill="rgb(77,77,255)" stroke="none" paint-order="stroke fill markers" d=" M 111.71568163852034 582.3472090958386 C 111.71568163852034 585.1086328449926 109.4771053876743 587.3472090958386 106.71568163852034 587.3472090958386 C 103.95425788936637 587.3472090958386 101.71568163852034 585.1086328449926 101.71568163852034 582.3472090958386 C 101.71568163852034 579.5857853466846 103.95425788936637 577.3472090958386 106.71568163852034 577.3472090958386 C 109.4771053876743 577.3472090958386 111.71568163852034 579.5857853466846 111.71568163852034 582.3472090958386 Z" fill-opacity="1"/><path fill="none" stroke="rgb(0,0,0)" paint-order="fill stroke markers" d=" M 111.71568163852034 582.3472090958386 C 111.71568163852034 585.1086328449926 109.4771053876743 587.3472090958386 106.71568163852034 587.3472090958386 C 103.95425788936637 587.3472090958386 101.71568163852034 585.1086328449926 101.71568163852034 582.3472090958386 C 101.71568163852034 579.5857853466846 103.95425788936637 577.3472090958386 106.71568163852034 577.3472090958386 C 109.4771053876743 577.3472090958386 111.71568163852034 579.5857853466846 111.71568163852034 582.3472090958386 Z" stroke-opacity="1" stroke-linecap="round" stroke-linejoin="round" stroke-miterlimit="10"/><text fill="rgb(77,77,255)" stroke="none" font-family="geogebra-sans-serif, sans-serif" font-size="16px" font-style="normal" font-weight="normal" text-decoration="normal" x="111" y="572" text-anchor="start" dominant-baseline="alphabetic" fill-opacity="1">F</text><text fill="none" stroke="rgb(255,255,255)" font-family="geogebra-sans-serif, sans-serif" font-size="16px" font-style="normal" font-weight="normal" text-decoration="normal" x="111" y="572" text-anchor="start" dominant-baseline="alphabetic" stroke-opacity="1" stroke-linejoin="bevel" stroke-miterlimit="10" stroke-width="3">F</text><text fill="rgb(77,77,255)" stroke="none" font-family="geogebra-sans-serif, sans-serif" font-size="16px" font-style="normal" font-weight="normal" text-decoration="normal" x="111" y="572" text-anchor="start" dominant-baseline="alphabetic" fill-opacity="1">F</text><path fill="rgb(77,77,255)" stroke="none" paint-order="stroke fill markers" d=" M 939.0405542154402 913.2771581266078 C 939.0405542154402 916.0385818757618 936.8019779645942 918.2771581266078 934.0405542154402 918.2771581266078 C 931.2791304662862 918.2771581266078 929.0405542154402 916.0385818757618 929.0405542154402 913.2771581266078 C 929.0405542154402 910.5157343774538 931.2791304662862 908.2771581266078 934.0405542154402 908.2771581266078 C 936.8019779645942 908.2771581266078 939.0405542154402 910.5157343774538 939.0405542154402 913.2771581266078 Z" fill-opacity="1"/><path fill="none" stroke="rgb(0,0,0)" paint-order="fill stroke markers" d=" M 939.0405542154402 913.2771581266078 C 939.0405542154402 916.0385818757618 936.8019779645942 918.2771581266078 934.0405542154402 918.2771581266078 C 931.2791304662862 918.2771581266078 929.0405542154402 916.0385818757618 929.0405542154402 913.2771581266078 C 929.0405542154402 910.5157343774538 931.2791304662862 908.2771581266078 934.0405542154402 908.2771581266078 C 936.8019779645942 908.2771581266078 939.0405542154402 910.5157343774538 939.0405542154402 913.2771581266078 Z" stroke-opacity="1" stroke-linecap="round" stroke-linejoin="round" stroke-miterlimit="10"/><text fill="rgb(77,77,255)" stroke="none" font-family="geogebra-sans-serif, sans-serif" font-size="16px" font-style="normal" font-weight="normal" text-decoration="normal" x="938" y="903" text-anchor="start" dominant-baseline="alphabetic" fill-opacity="1">G</text><text fill="none" stroke="rgb(255,255,255)" font-family="geogebra-sans-serif, sans-serif" font-size="16px" font-style="normal" font-weight="normal" text-decoration="normal" x="938" y="903" text-anchor="start" dominant-baseline="alphabetic" stroke-opacity="1" stroke-linejoin="bevel" stroke-miterlimit="10" stroke-width="3">G</text><text fill="rgb(77,77,255)" stroke="none" font-family="geogebra-sans-serif, sans-serif" font-size="16px" font-style="normal" font-weight="normal" text-decoration="normal" x="938" y="903" text-anchor="start" dominant-baseline="alphabetic" fill-opacity="1">G</text><path fill="rgb(77,77,255)" stroke="none" paint-order="stroke fill markers" d=" M 111.71568163852034 85.9522855496848 C 111.71568163852034 88.71370929883876 109.4771053876743 90.9522855496848 106.71568163852034 90.9522855496848 C 103.95425788936637 90.9522855496848 101.71568163852034 88.71370929883876 101.71568163852034 85.9522855496848 C 101.71568163852034 83.19086180053084 103.95425788936637 80.9522855496848 106.71568163852034 80.9522855496848 C 109.4771053876743 80.9522855496848 111.71568163852034 83.19086180053084 111.71568163852034 85.9522855496848 Z" fill-opacity="1"/><path fill="none" stroke="rgb(0,0,0)" paint-order="fill stroke markers" d=" M 111.71568163852034 85.9522855496848 C 111.71568163852034 88.71370929883876 109.4771053876743 90.9522855496848 106.71568163852034 90.9522855496848 C 103.95425788936637 90.9522855496848 101.71568163852034 88.71370929883876 101.71568163852034 85.9522855496848 C 101.71568163852034 83.19086180053084 103.95425788936637 80.9522855496848 106.71568163852034 80.9522855496848 C 109.4771053876743 80.9522855496848 111.71568163852034 83.19086180053084 111.71568163852034 85.9522855496848 Z" stroke-opacity="1" stroke-linecap="round" stroke-linejoin="round" stroke-miterlimit="10"/><text fill="rgb(77,77,255)" stroke="none" font-family="geogebra-sans-serif, sans-serif" font-size="16px" font-style="normal" font-weight="normal" text-decoration="normal" x="111" y="76" text-anchor="start" dominant-baseline="alphabetic" fill-opacity="1">E</text><text fill="none" stroke="rgb(255,255,255)" font-family="geogebra-sans-serif, sans-serif" font-size="16px" font-style="normal" font-weight="normal" text-decoration="normal" x="111" y="76" text-anchor="start" dominant-baseline="alphabetic" stroke-opacity="1" stroke-linejoin="bevel" stroke-miterlimit="10" stroke-width="3">E</text><text fill="rgb(77,77,255)" stroke="none" font-family="geogebra-sans-serif, sans-serif" font-size="16px" font-style="normal" font-weight="normal" text-decoration="normal" x="111" y="76" text-anchor="start" dominant-baseline="alphabetic" fill-opacity="1">E</text></g></g></svg>